<svg xmlns="http://www.w3.org/2000/svg" viewBox="0 0 25.48 26.02"><defs><style>.cls-1{fill:#41a75d;}.cls-2{fill:#fff;}</style></defs><title>icono_whatsapp</title><g id="Capa_2" data-name="Capa 2"><g id="Contenido"><path class="cls-1" d="M12.3,0h.87c.18,0,.36.09.54.11.53.07,1.07.1,1.59.21A12.78,12.78,0,0,1,13,25.6a12.22,12.22,0,0,1-5.92-1.35.87.87,0,0,0-.82,0C5,24.78,3.7,25.31,2.43,25.85L2,26c0-.15,0-.22,0-.28.35-1.36.71-2.72,1-4.08A.88.88,0,0,0,2.91,21,12.78,12.78,0,0,1,10.94.2C11.4.14,11.85.07,12.3,0ZM17,20.28a4.29,4.29,0,0,0,3-1.1,2.56,2.56,0,0,0,.84-1.4A1.54,1.54,0,0,0,20,15.9c-.8-.42-1.63-.75-2.44-1.14a.85.85,0,0,0-1.13.25c-.36.43-.71.88-1.06,1.33a.65.65,0,0,1-.88.2,11.66,11.66,0,0,1-5.13-4.45.5.5,0,0,1,0-.67c.29-.35.58-.69.86-1a1.06,1.06,0,0,0,.2-1.14c-.43-1-.84-2-1.3-3a.84.84,0,0,0-.53-.44,3.56,3.56,0,0,0-1.25,0A2.77,2.77,0,0,0,5.49,7.69a4.83,4.83,0,0,0,.3,4.2A16.31,16.31,0,0,0,12.89,19,9.37,9.37,0,0,0,17,20.28Z"/><path class="cls-2" d="M17,20.28A9.37,9.37,0,0,1,12.89,19a16.31,16.31,0,0,1-7.1-7.14,4.83,4.83,0,0,1-.3-4.2A2.77,2.77,0,0,1,7.32,5.8a3.56,3.56,0,0,1,1.25,0,.84.84,0,0,1,.53.44c.46,1,.87,2,1.3,3a1.06,1.06,0,0,1-.2,1.14c-.28.35-.57.7-.86,1a.5.5,0,0,0,0,.67,11.66,11.66,0,0,0,5.13,4.45.65.65,0,0,0,.88-.2c.35-.45.7-.89,1.06-1.33a.85.85,0,0,1,1.13-.25c.81.39,1.65.72,2.44,1.14a1.54,1.54,0,0,1,.81,1.88,2.56,2.56,0,0,1-.84,1.4A4.29,4.29,0,0,1,17,20.28Z"/></g></g></svg>