<svg xmlns="http://www.w3.org/2000/svg" viewBox="0 0 28 28"><defs><style>.cls-1{fill:#f56973;}.cls-2{fill:#fefefe;fill-rule:evenodd;}</style></defs><title>icono_googleplus</title><g id="Capa_2" data-name="Capa 2"><g id="Contenido"><path class="cls-1" d="M14,28A14,14,0,1,1,28,14.07,14,14,0,0,1,14,28Z"/><path class="cls-2" d="M10.29,13.07V15.3H14a3.51,3.51,0,0,1-3.69,2.8,4.1,4.1,0,0,1,0-8.21,3.66,3.66,0,0,1,2.59,1l1.76-1.7a6.23,6.23,0,0,0-4.36-1.7,6.5,6.5,0,1,0,0,13,6,6,0,0,0,6.24-6.35,6,6,0,0,0-.1-1.08Z"/><polygon class="cls-2" points="24.21 13.07 22.36 13.07 22.36 11.21 20.5 11.21 20.5 13.07 18.64 13.07 18.64 14.93 20.5 14.93 20.5 16.79 22.36 16.79 22.36 14.93 24.21 14.93 24.21 13.07"/></g></g></svg>