<svg xmlns="http://www.w3.org/2000/svg" viewBox="0 0 28 28"><defs><style>.cls-1{fill:#27aae1;}.cls-2{fill:#f0f1f1;}</style></defs><title>icono_twitter</title><g id="Capa_2" data-name="Capa 2"><g id="Contenido"><path class="cls-1" d="M14.09,0A14,14,0,1,1,0,13.86,14,14,0,0,1,14.09,0Z"/><path class="cls-2" d="M21.84,8.85c0,.88-.59,1.13-.88,1.57.42.25.78-.22,1.41,0-1.82,1-1.42,2.79-1.82,4.3A9.45,9.45,0,0,1,7.27,20.79c-.19-.09-.36-.21-.61-.36,3-.53,3.24-.61,4.35-1.54a3.63,3.63,0,0,1-2.82-2.22l1.25-.13a4.39,4.39,0,0,1-2.11-1.86c-.18-.39-.51-.82-.22-1.22s.66.2,1.12,0A3.45,3.45,0,0,1,7,10.14c.05-.3.07-.72.41-.83s.48.28.67.48a9.4,9.4,0,0,0,5.13,2.68c.66.12,1,.09,1-.8a3.19,3.19,0,0,1,4.6-2.84A2.64,2.64,0,0,0,21.84,8.85Z"/></g></g></svg>