<svg xmlns="http://www.w3.org/2000/svg" viewBox="0 0 28 28.02"><defs><style>.cls-1{fill:#003f64;}.cls-2{fill:#fff;stroke:#003f64;stroke-linejoin:round;stroke-width:0.75px;}</style></defs><title>icono_correo</title><g id="Capa_2" data-name="Capa 2"><g id="Contenido"><path class="cls-1" d="M15.21,28H12.78a3.73,3.73,0,0,0-.4-.09,14,14,0,1,1,4.7-.26C16.46,27.81,15.84,27.9,15.21,28Z"/><path class="cls-2" d="M15.5,14.85l7.71,5.61,0,.13L4.9,20.36c.29-.24.46-.39.64-.53,2.1-1.55,4.21-3.1,6.29-4.67a.54.54,0,0,1,.81,0c1.33,1.08,1.06,1,2.38,0Z"/><path class="cls-2" d="M13.83,15.19,5.59,8.64l0-.12H22.42Z"/><path class="cls-2" d="M23.77,8.43V19.59l-7.42-5.4Z"/><path class="cls-2" d="M11.39,14.2,4.22,19.5v-11Z"/></g></g></svg>