<svg xmlns="http://www.w3.org/2000/svg" viewBox="0 0 165.24 58.83"><defs><style>.cls-1{fill:#fff;}</style></defs><title>Logo_secretaría</title><g id="Capa_2" data-name="Capa 2"><g id="Contenido"><path class="cls-1" d="M85.56,22a.82.82,0,0,1,.82-.82H89a2.7,2.7,0,0,1,2,.66,1.72,1.72,0,0,1,.51,1.27v0a1.74,1.74,0,0,1-1,1.61,1.82,1.82,0,0,1,1.39,1.83v0c0,1.37-1.11,2-2.79,2H86.37a.81.81,0,0,1-.82-.82Zm3.11,2.19c.72,0,1.18-.24,1.18-.79v0c0-.49-.38-.77-1.08-.77H87.15v1.58Zm.43,3c.73,0,1.16-.26,1.16-.81v0c0-.5-.37-.81-1.22-.81H87.15v1.64Z"/><path class="cls-1" d="M92.62,23.78v0a5.21,5.21,0,0,1,10.42,0v0a5.21,5.21,0,0,1-10.42,0m8.16,0v0a3,3,0,0,0-3-3.08,2.93,2.93,0,0,0-2.94,3.05v0a3,3,0,0,0,3,3.08,2.93,2.93,0,0,0,2.94-3.05"/><path class="cls-1" d="M104.08,22.51v0a6.34,6.34,0,0,1,6.48-6.39,6.82,6.82,0,0,1,4.22,1.2,1.34,1.34,0,1,1-1.6,2.15,4.34,4.34,0,0,0-2.7-.85,3.71,3.71,0,0,0-3.55,3.85v0a3.7,3.7,0,0,0,3.74,3.92,4.35,4.35,0,0,0,2.56-.74V23.89h-1.84a1.17,1.17,0,0,1-1.19-1.17,1.19,1.19,0,0,1,1.19-1.19h3.1a1.35,1.35,0,0,1,1.37,1.36v3a1.83,1.83,0,0,1-1,1.73,8.24,8.24,0,0,1-4.33,1.24,6.19,6.19,0,0,1-6.5-6.36"/><path class="cls-1" d="M116.63,21.13v0a8,8,0,0,1,16.09,0v0a8,8,0,0,1-16.09,0m12.61,0v0a4.6,4.6,0,0,0-4.59-4.76A4.53,4.53,0,0,0,120.11,21v0a4.6,4.6,0,0,0,4.58,4.76,4.53,4.53,0,0,0,4.54-4.71"/><path class="cls-1" d="M136.69,14.21h-3.83a1.84,1.84,0,0,1,0-3.67H144.5a1.84,1.84,0,1,1,0,3.67h-3.83v12.6a2,2,0,1,1-4,0Z"/><path class="cls-1" d="M144.17,25.64l7.43-16.78A2.89,2.89,0,0,1,154.33,7h.28a2.86,2.86,0,0,1,2.71,1.85l7.43,16.78a2.19,2.19,0,0,1-2,3.19,2.39,2.39,0,0,1-2.26-1.61l-1.43-3.35H149.7l-1.49,3.5A2.3,2.3,0,0,1,146,28.83a2.16,2.16,0,0,1-2.16-2.19,2.48,2.48,0,0,1,.28-1m13.19-5.91-3-7-3,7Zm-4.2-15a1.72,1.72,0,0,1,.3-.82l1.67-2.62a2,2,0,0,1,1.73-1c1.13,0,2.59.7,2.59,1.4a1.5,1.5,0,0,1-.61,1.09l-1.89,1.77a3.38,3.38,0,0,1-2.64,1c-.67,0-1.16-.3-1.16-.8"/><path class="cls-1" d="M85.55,33.39a1.72,1.72,0,0,1,1.73-1.73h.38a1.78,1.78,0,0,1,1.58.9l4.19,6.83,4.21-6.85a1.69,1.69,0,0,1,1.55-.88h.38a1.72,1.72,0,0,1,1.73,1.73V45.92a1.72,1.72,0,1,1-3.45,0V38.06l-3,4.69a1.62,1.62,0,0,1-2.89,0l-3-4.62V46a1.69,1.69,0,0,1-1.71,1.69A1.67,1.67,0,0,1,85.55,46Z"/><path class="cls-1" d="M105.11,45.79V33.48a1.72,1.72,0,0,1,1.74-1.74h8.74a1.56,1.56,0,0,1,1.56,1.56,1.54,1.54,0,0,1-1.56,1.53h-7V38h6a1.56,1.56,0,0,1,1.55,1.56,1.54,1.54,0,0,1-1.55,1.53h-6v3.31h7.15A1.56,1.56,0,0,1,117.26,46a1.54,1.54,0,0,1-1.56,1.53h-8.86a1.72,1.72,0,0,1-1.74-1.73"/><path class="cls-1" d="M119.63,46.38A1.74,1.74,0,0,1,119,45a1.65,1.65,0,0,1,1.64-1.67,1.57,1.57,0,0,1,1,.36,3.34,3.34,0,0,0,2.1.79c1.35,0,2.16-.79,2.16-2.61V33.35a1.74,1.74,0,1,1,3.47,0v8.72a5.75,5.75,0,0,1-1.49,4.22,5.65,5.65,0,0,1-4.1,1.46,6.68,6.68,0,0,1-4.17-1.37"/><path class="cls-1" d="M132.22,39.68v0a8.39,8.39,0,0,1,16.77,0v0a8.39,8.39,0,0,1-16.77,0m13.14,0v0a4.79,4.79,0,0,0-4.78-5,4.72,4.72,0,0,0-4.74,4.91v0a4.79,4.79,0,0,0,4.78,5,4.71,4.71,0,0,0,4.73-4.91"/><path class="cls-1" d="M152.08,33.48a1.72,1.72,0,0,1,1.74-1.73h5.48a6.3,6.3,0,0,1,4.59,1.6,5,5,0,0,1,1.35,3.6v0a4.81,4.81,0,0,1-3.15,4.8l2.41,2.93a2,2,0,0,1,.56,1.33,1.62,1.62,0,0,1-1.64,1.6,2.08,2.08,0,0,1-1.71-.9l-3.38-4.28h-2.78v3.45a1.73,1.73,0,0,1-3.47,0Zm7,5.93c1.69,0,2.66-.91,2.66-2.23v0c0-1.49-1-2.25-2.73-2.25h-3.45v4.53Z"/><path class="cls-1" d="M85.54,51.37a.89.89,0,0,1,.9-.9H88.9c2,0,3.15,1.16,3.15,2.84v0c0,1.9-1.48,2.89-3.32,2.89H87.35v1.63a.9.9,0,1,1-1.8,0Zm3.24,3.24a1.27,1.27,0,0,0,1.43-1.25v0c0-.81-.57-1.24-1.47-1.24h-1.4v2.51Z"/><path class="cls-1" d="M92.34,57.52l2.86-6.46a1.13,1.13,0,0,1,1.06-.71h.11a1.1,1.1,0,0,1,1,.71l2.87,6.46a1,1,0,0,1,.09.37.85.85,0,0,1-.85.87.92.92,0,0,1-.87-.62l-.55-1.29H94.48l-.57,1.35a.89.89,0,0,1-.83.56.83.83,0,0,1-.84-.85.92.92,0,0,1,.11-.39m5.08-2.27-1.14-2.71-1.14,2.71Z"/><path class="cls-1" d="M101.78,51.37a.9.9,0,0,1,.91-.9h2.85a3.27,3.27,0,0,1,2.39.83,2.57,2.57,0,0,1,.7,1.88v0A2.5,2.5,0,0,1,107,55.7l1.26,1.53a1.07,1.07,0,0,1,.29.69.84.84,0,0,1-.86.83,1.08,1.08,0,0,1-.89-.47L105,56.06h-1.44v1.8a.9.9,0,0,1-1.81,0Zm3.64,3.09c.88,0,1.39-.47,1.39-1.16v0c0-.78-.54-1.18-1.42-1.18h-1.8v2.36Z"/><path class="cls-1" d="M109.81,57.52l2.86-6.46a1.13,1.13,0,0,1,1.06-.71h.1a1.11,1.11,0,0,1,1,.71l2.86,6.46a.92.92,0,0,1,.09.37.86.86,0,0,1-.86.87.91.91,0,0,1-.86-.62l-.55-1.29h-3.62l-.57,1.35a.89.89,0,0,1-.83.56.83.83,0,0,1-.84-.85,1.05,1.05,0,0,1,.11-.39m5.09-2.27-1.14-2.71-1.14,2.71Z"/><path class="cls-1" d="M124.69,52.14H123a.83.83,0,1,1,0-1.67h5.28a.83.83,0,1,1,0,1.67H126.5v5.72a.9.9,0,0,1-1.81,0Z"/><path class="cls-1" d="M129.67,54.6v0a4.37,4.37,0,0,1,8.73,0v0a4.37,4.37,0,0,1-8.73,0m6.84,0v0A2.5,2.5,0,0,0,134,52a2.45,2.45,0,0,0-2.46,2.56v0A2.5,2.5,0,0,0,134,57.16a2.46,2.46,0,0,0,2.47-2.56"/><path class="cls-1" d="M140,51.37a.9.9,0,0,1,.9-.9h2.3a4.09,4.09,0,0,1,4.36,4.08v0a4.11,4.11,0,0,1-4.36,4.11h-2.3a.9.9,0,0,1-.9-.91Zm3.21,5.68a2.34,2.34,0,0,0,2.48-2.45v0a2.36,2.36,0,0,0-2.48-2.48h-1.4v5Z"/><path class="cls-1" d="M148.82,54.6v0a4.37,4.37,0,0,1,8.73,0v0a4.37,4.37,0,0,1-8.73,0m6.84,0v0A2.5,2.5,0,0,0,153.17,52a2.46,2.46,0,0,0-2.47,2.56v0a2.5,2.5,0,0,0,2.49,2.58,2.46,2.46,0,0,0,2.46-2.56"/><path class="cls-1" d="M158.94,57.82a.84.84,0,0,1,.5-1.51.86.86,0,0,1,.51.16,3.46,3.46,0,0,0,2.1.74c.74,0,1.19-.29,1.19-.77v0c0-.46-.28-.7-1.66-1-1.65-.43-2.72-.88-2.72-2.51v0c0-1.49,1.2-2.48,2.88-2.48a4.77,4.77,0,0,1,2.6.73.82.82,0,0,1,.4.71.83.83,0,0,1-.84.84.89.89,0,0,1-.46-.13,3.42,3.42,0,0,0-1.72-.55c-.7,0-1.06.32-1.06.71v0c0,.54.35.72,1.78,1.08,1.66.43,2.6,1,2.6,2.46v0c0,1.63-1.25,2.55-3,2.55a5.31,5.31,0,0,1-3.08-1"/><rect class="cls-1" x="71.35" y="0.16" width="1.05" height="58.59"/><path class="cls-1" d="M5,50.25H3.91l-.43-1.13h-2l-.41,1.13H0l1.94-5H3Zm-1.86-2-.68-1.84-.67,1.84Z"/><polygon class="cls-1" points="5.27 50.25 5.27 45.31 6.28 45.31 6.28 49.4 8.78 49.4 8.78 50.25 5.27 50.25"/><path class="cls-1" d="M12.39,48.4l1,.32a2.21,2.21,0,0,1-.74,1.22,2.15,2.15,0,0,1-1.33.39,2.15,2.15,0,0,1-1.63-.68A2.59,2.59,0,0,1,9,47.8a2.71,2.71,0,0,1,.64-1.93,2.22,2.22,0,0,1,1.69-.69,2.05,2.05,0,0,1,1.48.54,2,2,0,0,1,.51.92l-1,.24a1,1,0,0,0-.37-.61,1,1,0,0,0-.68-.23,1.15,1.15,0,0,0-.9.4,1.93,1.93,0,0,0-.35,1.28,2.05,2.05,0,0,0,.35,1.34,1.09,1.09,0,0,0,.88.4,1,1,0,0,0,.69-.25,1.55,1.55,0,0,0,.42-.81"/><path class="cls-1" d="M18.43,50.25H17.34l-.44-1.13h-2l-.41,1.13H13.42l1.94-5h1.06Zm-1.86-2-.68-1.84-.67,1.84Z"/><polygon class="cls-1" points="18.7 50.25 18.7 45.31 19.7 45.31 19.7 49.4 22.2 49.4 22.2 50.25 18.7 50.25"/><path class="cls-1" d="M22.62,45.27h1.84a3.48,3.48,0,0,1,.95.1,1.68,1.68,0,0,1,.75.46,2.25,2.25,0,0,1,.48.81,3.68,3.68,0,0,1,.16,1.18,3.33,3.33,0,0,1-.15,1.06,2.23,2.23,0,0,1-.53.88,1.82,1.82,0,0,1-.71.4,3.1,3.1,0,0,1-.89.11H22.62Zm1,.85V49.4h.75a2.71,2.71,0,0,0,.61,0,.87.87,0,0,0,.41-.2,1.16,1.16,0,0,0,.26-.48,3.44,3.44,0,0,0,.1-.91,3.14,3.14,0,0,0-.1-.89,1.23,1.23,0,0,0-.29-.48,1.06,1.06,0,0,0-.46-.24,5.46,5.46,0,0,0-.83,0Z"/><path class="cls-1" d="M27.58,44.81l.46-1h1.07l-.93,1Zm-.25.46h1v5h-1Z"/><path class="cls-1" d="M33.49,50.25H32.4L32,49.12H30l-.41,1.13H28.49l1.94-5h1.07Zm-1.85-2L31,46.43l-.67,1.84Z"/><polygon class="cls-1" points="35.1 50.25 35.1 45.27 36.61 45.27 37.51 48.67 38.4 45.27 39.91 45.27 39.91 50.25 38.98 50.25 38.98 46.33 37.99 50.25 37.02 50.25 36.04 46.33 36.03 50.25 35.1 50.25"/><path class="cls-1" d="M45.12,50.25H44l-.43-1.13h-2l-.42,1.13H40.11l1.94-5h1.07Zm-1.85-2-.69-1.84-.67,1.84Z"/><polygon class="cls-1" points="46.02 50.25 46.02 48.15 44.2 45.27 45.38 45.27 46.55 47.24 47.71 45.27 48.86 45.27 47.03 48.16 47.03 50.25 46.02 50.25"/><path class="cls-1" d="M48.86,47.79a3.26,3.26,0,0,1,.23-1.28,2.44,2.44,0,0,1,.46-.68,2,2,0,0,1,.64-.45,2.79,2.79,0,0,1,1.08-.2,2.34,2.34,0,0,1,1.76.68,3.07,3.07,0,0,1,0,3.79,2.63,2.63,0,0,1-3.53,0,2.56,2.56,0,0,1-.65-1.86m1,0A1.86,1.86,0,0,0,50.29,49a1.26,1.26,0,0,0,1,.43,1.25,1.25,0,0,0,1-.43,2.36,2.36,0,0,0,0-2.57,1.27,1.27,0,0,0-1-.42,1.3,1.3,0,0,0-1,.43,1.87,1.87,0,0,0-.38,1.28"/><path class="cls-1" d="M54.19,50.25v-5H56.3a3.62,3.62,0,0,1,1.17.14,1.12,1.12,0,0,1,.58.48,1.47,1.47,0,0,1,.22.79,1.34,1.34,0,0,1-.33.92,1.57,1.57,0,0,1-1,.46,2.23,2.23,0,0,1,.53.42,4.75,4.75,0,0,1,.57.8l.62,1H57.46l-.71-1.08c-.26-.39-.45-.63-.54-.73a.86.86,0,0,0-.3-.21,2.07,2.07,0,0,0-.51-.05h-.2v2.08Zm1-2.87h.74a4.39,4.39,0,0,0,.9-.06.55.55,0,0,0,.28-.22.61.61,0,0,0,.1-.37.58.58,0,0,0-.14-.41.55.55,0,0,0-.37-.2c-.08,0-.32,0-.73,0H55.2Z"/><rect class="cls-1" x="48.28" y="57.36" width="0.94" height="0.94"/><path class="cls-1" d="M3.19,53.39H5a3.65,3.65,0,0,1,.94.09,1.73,1.73,0,0,1,.74.45,2.1,2.1,0,0,1,.46.79,3.51,3.51,0,0,1,.16,1.15,3.19,3.19,0,0,1-.15,1,2.17,2.17,0,0,1-.52.87,1.72,1.72,0,0,1-.7.39,2.88,2.88,0,0,1-.87.1H3.19Zm1,.83v3.23h.74a2.77,2.77,0,0,0,.6,0,.91.91,0,0,0,.4-.2,1.05,1.05,0,0,0,.26-.47,3.14,3.14,0,0,0,.1-.89,2.85,2.85,0,0,0-.1-.87,1.2,1.2,0,0,0-.28-.48.94.94,0,0,0-.46-.23,4.67,4.67,0,0,0-.81,0Z"/><polygon class="cls-1" points="7.85 58.28 7.85 53.39 11.48 53.39 11.48 54.22 8.84 54.22 8.84 55.3 11.29 55.3 11.29 56.13 8.84 56.13 8.84 57.45 11.57 57.45 11.57 58.28 7.85 58.28"/><path class="cls-1" d="M13.74,53.39h2a5.24,5.24,0,0,1,.86,0,1.24,1.24,0,0,1,.51.2,1.22,1.22,0,0,1,.38.4,1.13,1.13,0,0,1,.15.57,1.15,1.15,0,0,1-.18.63,1.13,1.13,0,0,1-.5.43,1.3,1.3,0,0,1,.69.44,1.17,1.17,0,0,1,.24.74,1.47,1.47,0,0,1-.15.65,1.4,1.4,0,0,1-.42.51,1.45,1.45,0,0,1-.67.24c-.17,0-.57,0-1.19,0H13.74Zm1,.81v1.13h.65l.72,0a.66.66,0,0,0,.4-.17.58.58,0,0,0,0-.75.53.53,0,0,0-.37-.17c-.1,0-.38,0-.84,0Zm0,1.94v1.31h.92a4.21,4.21,0,0,0,.68,0,.62.62,0,0,0,.36-.19.61.61,0,0,0,.14-.41.64.64,0,0,0-.11-.38.6.6,0,0,0-.31-.22,3.27,3.27,0,0,0-.88-.07Z"/><path class="cls-1" d="M18.18,55.87a3.16,3.16,0,0,1,.22-1.25,2.48,2.48,0,0,1,.46-.67,1.93,1.93,0,0,1,.64-.44,2.68,2.68,0,0,1,1.05-.2,2.27,2.27,0,0,1,1.73.68,2.55,2.55,0,0,1,.65,1.86,2.52,2.52,0,0,1-.64,1.85,2.26,2.26,0,0,1-1.72.67,2.29,2.29,0,0,1-1.73-.66,2.5,2.5,0,0,1-.65-1.84m1,0a1.82,1.82,0,0,0,.39,1.26,1.32,1.32,0,0,0,1.94,0,1.87,1.87,0,0,0,.38-1.28,1.81,1.81,0,0,0-.37-1.25,1.23,1.23,0,0,0-1-.42,1.26,1.26,0,0,0-1,.42,1.82,1.82,0,0,0-.38,1.26"/><path class="cls-1" d="M25.7,56.5v-.83h2.13v1.95a2.89,2.89,0,0,1-.9.53,3.29,3.29,0,0,1-1.2.23A2.6,2.6,0,0,1,24.4,58a2,2,0,0,1-.86-.92,3,3,0,0,1-.29-1.3,2.78,2.78,0,0,1,.33-1.36,2.11,2.11,0,0,1,.94-.91,2.53,2.53,0,0,1,1.17-.25,2.4,2.4,0,0,1,1.43.38,1.76,1.76,0,0,1,.65,1.06l-1,.19a1,1,0,0,0-.39-.57,1.19,1.19,0,0,0-.71-.21,1.34,1.34,0,0,0-1,.41,1.71,1.71,0,0,0-.38,1.22,1.89,1.89,0,0,0,.38,1.3,1.28,1.28,0,0,0,1,.43,1.63,1.63,0,0,0,.62-.12,1.9,1.9,0,0,0,.54-.29V56.5Z"/><path class="cls-1" d="M28.25,55.87a3.11,3.11,0,0,1,.22-1.25,2.33,2.33,0,0,1,.45-.67,2,2,0,0,1,.64-.44,2.71,2.71,0,0,1,1.05-.2,2.29,2.29,0,0,1,1.73.68,3,3,0,0,1,0,3.71,2.27,2.27,0,0,1-1.72.67,2.3,2.3,0,0,1-1.73-.66,2.54,2.54,0,0,1-.65-1.84m1,0a1.82,1.82,0,0,0,.38,1.26,1.24,1.24,0,0,0,1,.43,1.26,1.26,0,0,0,1-.43A1.85,1.85,0,0,0,32,55.82a1.82,1.82,0,0,0-.36-1.25,1.36,1.36,0,0,0-2,0,1.82,1.82,0,0,0-.37,1.26"/><polygon class="cls-1" points="34.59 58.28 34.59 54.22 33.14 54.22 33.14 53.39 37.03 53.39 37.03 54.22 35.58 54.22 35.58 58.28 34.59 58.28"/><path class="cls-1" d="M41.79,58.28H40.71l-.43-1.11h-2l-.4,1.11H36.88l1.91-4.89h1.05ZM40,56.34l-.68-1.81-.65,1.81Zm-1-3.4.46-1h1l-.91,1Z"/><path class="cls-1" d="M43.63,53.39h1.81a3.64,3.64,0,0,1,.93.09,1.68,1.68,0,0,1,.74.45,2.14,2.14,0,0,1,.47.79,3.59,3.59,0,0,1,.16,1.15,3.34,3.34,0,0,1-.15,1,2.32,2.32,0,0,1-.52.87,1.74,1.74,0,0,1-.69.39,3,3,0,0,1-.88.1H43.63Zm1,.83v3.23h.74a2.76,2.76,0,0,0,.6,0,.92.92,0,0,0,.4-.2,1.08,1.08,0,0,0,.26-.47,3.34,3.34,0,0,0,.09-.89,3,3,0,0,0-.09-.87,1.12,1.12,0,0,0-.29-.48.88.88,0,0,0-.45-.23,4.77,4.77,0,0,0-.81,0Z"/><path class="cls-1" d="M53,56.48l.95.31a2.19,2.19,0,0,1-.72,1.2,2.31,2.31,0,0,1-2.91-.28,2.54,2.54,0,0,1-.63-1.82A2.68,2.68,0,0,1,50.36,54,2.16,2.16,0,0,1,52,53.31a2,2,0,0,1,1.46.53,1.87,1.87,0,0,1,.5.9L53,55a1,1,0,0,0-1-.83,1.12,1.12,0,0,0-.89.39,1.9,1.9,0,0,0-.34,1.26,2,2,0,0,0,.33,1.32,1.08,1.08,0,0,0,.87.39,1,1,0,0,0,.68-.25,1.51,1.51,0,0,0,.41-.8"/><rect class="cls-1" x="54.54" y="57.38" width="0.94" height="0.94"/><path class="cls-1" d="M19.64,23.48c.09.13.58-.17.54-.3s0-.81.4-.86v-.17s-.66,0-.8.43c0,0-.53-.56-.67-.51s.13.81.13.81c-.45-.08-.67.52-.67.52l.09.09a.64.64,0,0,1,1,0"/><path class="cls-1" d="M25.08,28.08a2.13,2.13,0,0,0-.49,1.5,1.73,1.73,0,0,0,1.34-.65,1.84,1.84,0,0,0,.49-1.46,2,2,0,0,0-1.34.6"/><path class="cls-1" d="M39.2,22.87s.27-.73.13-.81-.67.51-.67.51c-.13-.43-.8-.43-.8-.43v.17c.45,0,.54.65.4.86s.44.43.54.3a.64.64,0,0,1,1,0l.09-.09s-.22-.6-.67-.52"/><path class="cls-1" d="M33.36,28.08a2,2,0,0,0-1.34-.6,1.8,1.8,0,0,0,.5,1.46,1.7,1.7,0,0,0,1.33.65,2.1,2.1,0,0,0-.49-1.5"/><path class="cls-1" d="M38.4,23.44a2,2,0,0,0-2.67.3,1.79,1.79,0,0,0,.8,2.39c-.66.06-1.51-.84-1.51-.84-.38.69.31,1.08.84,1.27l-.21.16c-.51-.13-.68.12-.68.12s-1.21-1.24-2-2.09l.74-.14c-.54-1.24-2-1.51-3-2.26-.74-.56.09-.81.28-.62a2.94,2.94,0,0,0,3.48.47,3.67,3.67,0,0,1-1.92-1.89,4.14,4.14,0,0,0,4.72-.21,3.83,3.83,0,0,1-3.17-1.37,5.35,5.35,0,0,0,4.68-1.2,12.51,12.51,0,0,1-3.56-1c4.05-.13,4.41-3,4.45-3-1.12.73-4.1.38-4.1.38,4.23-1.5,3.92-5,3.92-5-.89,1.33-5,2.62-5,2.62a2.74,2.74,0,0,0-2,2.49,1,1,0,0,1-1,.86c-1.09,0-1.07-1.57-1.07-2.32,0-1.12,0-2.4-.85-2.4H28c-.29,0-.79,0-1,.22-.41.48-.35,1.75-.16,1.5a1.89,1.89,0,0,1,1,0c.52.15.13,1.75.13,2.11a1,1,0,0,1-1,.9A1,1,0,0,1,26,14a2.75,2.75,0,0,0-2-2.49S19.89,10.25,19,8.92c0,0-.31,3.52,4,5.07,0,0-3,.25-4.14-.47,0,0,.58,3,4.64,3.14a13.65,13.65,0,0,1-3.65.77A5.18,5.18,0,0,0,24.57,19a4.52,4.52,0,0,1-3.35,1.12,4.14,4.14,0,0,0,4.73.3,3.51,3.51,0,0,1-1.87,1.8,3,3,0,0,0,3.52-.47c.24-.26,1,0,.24.63-1,.78-2.47,1-3.09,2.26l.75.14c-.84.85-2,2.06-2.09,2.09s-.16-.23-.63-.13l-.2-.14c.54-.19,1.22-.58.85-1.27,0,0-.85.9-1.51.84a1.8,1.8,0,0,0,.8-2.39,2,2,0,0,0-2.67-.3,1.88,1.88,0,0,0-.89,2.49,1.86,1.86,0,0,0,2.53.34,2.78,2.78,0,0,1-1.51.91s.55,1.05,1.77-.35l.2.15c-.33.26-.46.7-.2.89,0,0-.13.69.67.64a.63.63,0,0,0,.85.2A10,10,0,0,1,23.78,31l1,0a7.8,7.8,0,0,0-.94-3.18.34.34,0,0,0,.07-.51c0-.05,1.45-1,2.54-1.64l.14.69a3,3,0,0,1,1.54-1,4.28,4.28,0,0,0-.83,3.44s.18-.56,1.07-.65c0,0-1.25,1.51.76,4.43,2-2.92.85-4.43.85-4.43a1.27,1.27,0,0,1,1.11.65,4.34,4.34,0,0,0-.89-3.47,2.88,2.88,0,0,1,1.56,1.06l.14-.71c1.07.67,2.55,1.6,2.53,1.66s-.07.38.1.52a8,8,0,0,0-.94,3.17l1,0A10.46,10.46,0,0,1,35,28.72a.65.65,0,0,0,.82-.21c.8,0,.67-.64.67-.64.26-.18.14-.61-.2-.86l.23-.17c1.21,1.4,1.76.35,1.76.35a2.78,2.78,0,0,1-1.51-.91,1.86,1.86,0,0,0,2.53-.34,1.87,1.87,0,0,0-.89-2.49M21.73,26.05c-.4.26-1,.09-1.56-.68s-.49-1.63-.09-1.85,1.15.17,1.64.95.4,1.37,0,1.59m6.85-14.61a.4.4,0,0,1-.44-.38.41.41,0,0,1,.44-.43.4.4,0,0,1,.4.43.39.39,0,0,1-.4.38m9.68,13.92c-.53.77-1.17.94-1.56.68s-.54-.86,0-1.59,1.24-1.16,1.64-.95.4,1.08-.08,1.85"/><polygon class="cls-1" points="30.19 9.77 31.07 8.4 29.69 8.92 29.2 7.67 28.67 8.92 27.24 8.4 28.18 9.77 30.19 9.77"/><path class="cls-1" d="M15.94,20c0-.86-.54-1.5-1-1.46s-.71.73-.67,1.59.5,1.25.89,1.2.8-.52.76-1.34"/><path class="cls-1" d="M43.57,30.91c-.35-.21-1.07.13-1.56.82s-.4,1.29,0,1.5.93,0,1.42-.65.49-1.46.13-1.67"/><path class="cls-1" d="M34.68,4.75c0-.39-.45-.82-1.3-.86s-1.6.43-1.6.82.71.77,1.55.82,1.38-.34,1.34-.78"/><path class="cls-1" d="M16.64,31.73c-.49-.69-1.2-1-1.56-.82s-.36,1,.13,1.68,1.08.86,1.43.65.45-.82,0-1.5"/><path class="cls-1" d="M27.4,35.94c-.89-.13-1.65.09-1.74.48s.49.94,1.34,1.11,1.43-.12,1.51-.55-.27-.86-1.11-1"/><path class="cls-1" d="M29.21,0a18.91,18.91,0,0,1-17.5,0V31.37a7,7,0,0,0,7.08,6.89c3.79,0,7.17.52,10.42,2.61A18.46,18.46,0,0,1,39.6,38.26a7,7,0,0,0,7.12-6.89V0A19,19,0,0,1,29.21,0M43.29,4.92s.09-.69.23-.69.35.65.35.65c.26-.26.8,0,.8,0l0,.13a.53.53,0,0,0-.71.47c0,.13-.57.17-.57,0a.61.61,0,0,0-.8-.43l0-.09s.45-.39.8-.13m.36.91a1.82,1.82,0,0,1,2.1,1.33,1.73,1.73,0,0,1-1.64,1.61,2.77,2.77,0,0,0,1.59-.11s.12,1-1.41.67c.07.8-.45,1.4-.64,2.2a1.92,1.92,0,0,1,.45-.42,2.23,2.23,0,0,1,1.47-.26,1.6,1.6,0,0,1-.72,1.08,2,2,0,0,1-1.27.32A3.45,3.45,0,0,0,44,13.56l-.71.56a4.29,4.29,0,0,1,.09-3.39c.36-.76.43-1.06.38-1.35-.49.18-1.46.41-1.59-.42a2.82,2.82,0,0,0,1.59-.17,1.84,1.84,0,0,1-1.91-1.38,1.72,1.72,0,0,1,1.83-1.59m1.18,11.81,0,.13a.61.61,0,0,0-.8.43c0,.12-.58.08-.58,0a.53.53,0,0,0-.71-.47l0-.13s.54-.3.8,0c0,0,.23-.69.36-.64s.22.69.22.69c.35-.26.8.09.8.09M33.34,2.86a1.64,1.64,0,0,1,1.47,1.74,2.36,2.36,0,0,0,0-1.58s1,0,.63,1.39c.8,0,1.35.54,2.14.79a1.45,1.45,0,0,1-.36-.46,1.72,1.72,0,0,1-.17-1.42,1.51,1.51,0,0,1,1.06.77,1.79,1.79,0,0,1,.22,1.23,3.59,3.59,0,0,0,1.38-.24l.54.73a5,5,0,0,1-3.52-.39,3.18,3.18,0,0,0-1.31-.49c.11.47.26,1.46-.56,1.49,0,0,.28-1.09-.09-1.58a1.71,1.71,0,0,1-1.6,1.75,1.67,1.67,0,0,1-1.47-1.89,1.73,1.73,0,0,1,1.6-1.85M30.81,4.45c-.27-.3.09-.77.09-.77l.14,0c-.22.38.22.73.45.73s.13.51,0,.51a.62.62,0,0,0-.54.78h-.13s-.32-.47,0-.78c0,0-.72-.13-.72-.26s.76-.26.76-.26m-3.7,0c.22,0,.66-.35.44-.73l.14,0s.36.47.09.77c0,0,.76.13.76.26s-.71.26-.71.26c.27.3-.05.78-.05.78h-.13A.62.62,0,0,0,27.11,5c-.13,0-.13-.51,0-.51m-8.29.64a3.59,3.59,0,0,0,1.38.24,1.8,1.8,0,0,1,.23-1.23,1.49,1.49,0,0,1,1.06-.77,1.72,1.72,0,0,1-.18,1.42,1.36,1.36,0,0,1-.36.46c.78-.24,1.34-.76,2.14-.79C22.7,3,23.72,3,23.72,3a2.41,2.41,0,0,0,0,1.58,1.64,1.64,0,0,1,1.47-1.74,1.73,1.73,0,0,1,1.61,1.85A1.68,1.68,0,0,1,25.37,6.6a1.72,1.72,0,0,1-1.6-1.75c-.36.49-.09,1.58-.09,1.58-.82,0-.67-1-.56-1.49a3.19,3.19,0,0,0-1.32.49,5,5,0,0,1-3.52.39Zm-4-.21s.22-.69.35-.65.22.69.22.69c.36-.26.8.13.8.13l0,.09a.61.61,0,0,0-.8.43c0,.13-.58.09-.58,0A.55.55,0,0,0,14,5.06l0-.13s.53-.3.8,0m.22.94a1.72,1.72,0,0,1,1.83,1.59,1.83,1.83,0,0,1-1.91,1.38A2.82,2.82,0,0,0,16.51,9c-.13.83-1.1.59-1.59.42,0,.29,0,.58.39,1.35a4.5,4.5,0,0,1,.09,3.39l-.71-.56A3.37,3.37,0,0,0,15,12.25a2,2,0,0,1-1.25-.32,1.43,1.43,0,0,1-.71-1.08,2.24,2.24,0,0,1,1.47.26,1.82,1.82,0,0,1,.4.37c-.21-.78-.69-1.36-.61-2.14-1.51.32-1.39-.67-1.39-.67a2.78,2.78,0,0,0,1.59.11A1.74,1.74,0,0,1,12.9,7.16,1.83,1.83,0,0,1,15,5.83m1,11.72,0,.13a.54.54,0,0,0-.72.47c0,.13-.53.17-.57,0a.61.61,0,0,0-.81-.43l0-.13s.44-.34.79-.09c0,0,.1-.69.23-.69s.35.64.35.64c.27-.26.8,0,.8,0m-3.3,5A1.68,1.68,0,0,1,14,23a1.18,1.18,0,0,1,.46.76,2.56,2.56,0,0,1,.17-.41c.36-.76.43-1.06.39-1.35-.49.18-1.46.41-1.59-.41,0,0,1.17.19,1.65-.21a1.79,1.79,0,0,1-2-1.34A1.79,1.79,0,0,1,15,18.41a1.89,1.89,0,0,1,2.09,1.38,1.69,1.69,0,0,1-1.71,1.58A2.67,2.67,0,0,0,17,21.29s.11,1-1.39.67c.13,1.34-1.37,2.1-.34,4.23l-.72.56a4.44,4.44,0,0,1-.18-2.57,1.83,1.83,0,0,1-1.29-.48,1.25,1.25,0,0,1-.4-1.16m1.05,8.25-.09-.08s.22-.56.67-.47c0,0-.31-.64-.18-.73s.62.43.62.43c.14-.39.71-.39.71-.39l0,.13a.59.59,0,0,0-.4.82c.08.08-.4.39-.44.3a.6.6,0,0,0-.94,0m5.93,6.4a3.36,3.36,0,0,0-.52-1.24,2.23,2.23,0,0,1-1.17.47,1.6,1.6,0,0,1-1.3-.47,1.87,1.87,0,0,1,1.34-.6,1.71,1.71,0,0,1,.58,0c-.64-.5-1.39-.68-1.85-1.35-1,1.11-1.54.23-1.54.23a2.45,2.45,0,0,0,1.41-.9,1.75,1.75,0,0,1-2.38-.26,1.72,1.72,0,0,1,.8-2.27,1.8,1.8,0,0,1,2.45.21,1.62,1.62,0,0,1-.7,2.21c.62.05,1.46-.75,1.46-.75.4.71-.53,1.08-1,1.22.15.26.4.46,1.15.84a4.65,4.65,0,0,1,2.23,2.66Zm5.63-.6c-.26,0-.75.22-.66.64H24.5s-.22-.51.13-.77c0,0-.71-.3-.67-.43s.76-.09.76-.09c-.22-.39.23-.77.23-.77l.13.09a.55.55,0,0,0,.32.81c.13,0,0,.56-.09.52m8.25,1.16a3.47,3.47,0,0,0-1.29-.53,1.7,1.7,0,0,1-.5,1.13,1.68,1.68,0,0,1-1.25.56,2.28,2.28,0,0,1,.5-1.38,1.72,1.72,0,0,1,.46-.32,7.6,7.6,0,0,1-2.31.31c.09,1.47-.92,1.17-.92,1.17a2.4,2.4,0,0,0,.33-1.53,1.68,1.68,0,0,1-1.85,1.4,1.8,1.8,0,0,1-1.16-2.15,1.77,1.77,0,0,1,1.92-1.55,1.73,1.73,0,0,1,1.15,2c.45-.4.41-1.46.41-1.46.84.23.46,1.1.23,1.53a2.69,2.69,0,0,0,1.42-.15,5,5,0,0,1,3.56.34Zm-4.37-3.34a12,12,0,0,0-6.94-1.68,4.49,4.49,0,0,1-4.56-4.56l0-21.09c2.8,1.5,9,.49,11.67-.91C32,7.58,38.15,8.55,41,7.07l0,21.09a4.77,4.77,0,0,1-4.88,4.56,12,12,0,0,0-6.9,1.68m15.24-1.3a1.78,1.78,0,0,1-2.36.3,2.53,2.53,0,0,0,1.38.86s-.51.87-1.53-.23c-.47.67-1.22.86-1.87,1.36a1.74,1.74,0,0,1,.6,0,1.93,1.93,0,0,1,1.34.6,1.64,1.64,0,0,1-1.29.47,2.09,2.09,0,0,1-1.18-.47A3.15,3.15,0,0,0,39,37.19l-.94,0a4.68,4.68,0,0,1,2.22-2.66c.76-.38,1-.57,1.16-.84-.49-.14-1.42-.51-1-1.22,0,0,.8.77,1.42.75A1.63,1.63,0,0,1,41.17,31a1.8,1.8,0,0,1,2.45-.21,1.72,1.72,0,0,1,.8,2.27m.45-2.32a.55.55,0,0,0-.89,0c0,.09-.54-.22-.5-.3a.56.56,0,0,0-.35-.82l0-.13s.58,0,.72.39c0,0,.49-.52.62-.43s-.18.73-.18.73c.44-.09.67.47.67.47Zm.68-7.09a1.8,1.8,0,0,1-1.27.48,4.23,4.23,0,0,1-.21,2.57l-.7-.56c1.06-2.13-.43-2.89-.34-4.23-1.52.32-1.36-.67-1.36-.67a2.48,2.48,0,0,0,1.62.07,1.69,1.69,0,0,1-1.71-1.58,1.9,1.9,0,0,1,2.1-1.38A1.79,1.79,0,0,1,45.5,20a1.78,1.78,0,0,1-2,1.34c.48.4,1.64.21,1.64.21-.13.83-1.1.59-1.59.41,0,.29,0,.59.39,1.35a3.19,3.19,0,0,1,.17.41,1.33,1.33,0,0,1,.45-.75A1.72,1.72,0,0,1,46,22.54a1.41,1.41,0,0,1-.44,1.16"/><path class="cls-1" d="M14.78,8.66c.4,0,.85-.39.89-1.2S15.4,5.91,15,5.87s-.93.6-1,1.46.32,1.29.76,1.33"/><path class="cls-1" d="M43.88,8.66c.4,0,.8-.52.75-1.33s-.53-1.5-1-1.46-.75.73-.71,1.59.49,1.25.93,1.2"/><path class="cls-1" d="M25.24,5.52c.84,0,1.52-.38,1.56-.82s-.72-.82-1.6-.82-1.29.48-1.29.86.44.82,1.33.77"/><path class="cls-1" d="M44.39,20.09c0-.86-.32-1.54-.71-1.59s-.94.6-1,1.46.36,1.29.75,1.34.9-.39.94-1.2"/></g></g></svg>